<?xml version="1.0" encoding="UTF-8" standalone="no"?>

<svg
   xmlns:dc="http://purl.org/dc/elements/1.1/"
   xmlns:cc="http://creativecommons.org/ns#"
   xmlns:rdf="http://www.w3.org/1999/02/22-rdf-syntax-ns#"
   xmlns:svg="http://www.w3.org/2000/svg"
   xmlns="http://www.w3.org/2000/svg"
   xmlns:sodipodi="http://sodipodi.sourceforge.net/DTD/sodipodi-0.dtd"
   xmlns:inkscape="http://www.inkscape.org/namespaces/inkscape"
   width="336.51251"
   height="238.59625"
   id="svg3825"
   version="1.1"
   inkscape:version="0.48.5 r10040"
   sodipodi:docname="gallery-A.svg">
  <defs
     id="defs3827" />
  <sodipodi:namedview
     id="base"
     pagecolor="#ffffff"
     bordercolor="#666666"
     borderopacity="1.0"
     inkscape:pageopacity="0.0"
     inkscape:pageshadow="2"
     inkscape:zoom="0.35"
     inkscape:cx="197.54197"
     inkscape:cy="-54.987593"
     inkscape:document-units="px"
     inkscape:current-layer="layer1"
     showgrid="false"
     inkscape:window-width="898"
     inkscape:window-height="954"
     inkscape:window-x="50"
     inkscape:window-y="50"
     inkscape:window-maximized="0"
     fit-margin-top="0"
     fit-margin-left="0"
     fit-margin-right="0"
     fit-margin-bottom="0" />
  <metadata
     id="metadata3830">
    <rdf:RDF>
      <cc:Work
         rdf:about="">
        <dc:format>image/svg+xml</dc:format>
        <dc:type
           rdf:resource="http://purl.org/dc/dcmitype/StillImage" />
        <dc:title></dc:title>
      </cc:Work>
    </rdf:RDF>
  </metadata>
  <g
     inkscape:label="Layer 1"
     inkscape:groupmode="layer"
     id="layer1"
     transform="translate(-177.45803,-238.77834)">
    <path
       inkscape:connector-curvature="0"
       id="path3770"
       d="m 177.45803,422.22584 55.15,0 0,55.14875 -55.15,0 0,-55.14875 z m 168.25626,-183.4475 168.25625,0 0,168.25625 -168.25625,0 -168.25626,0 0,-168.25625 168.25626,0 z m 113.10625,183.4475 55.15,0 0,55.14875 -55.15,0 0,-55.14875 z m -70.34,0 55.14875,0 0,55.14875 -55.14875,0 0,-55.14875 z m -70.34125,0 55.15,0 0,55.14875 -55.15,0 0,-55.14875 z m -70.34001,0 55.14876,0 0,55.14875 -55.14876,0 0,-55.14875 z"
       style="fill:#0088ff;fill-opacity:1;stroke:none"
       inkscape:export-xdpi="13.202219"
       inkscape:export-ydpi="13.202219" />
  </g>
</svg>
