<?xml version="1.0" encoding="UTF-8" standalone="no"?>

<svg
   xmlns:dc="http://purl.org/dc/elements/1.1/"
   xmlns:cc="http://creativecommons.org/ns#"
   xmlns:rdf="http://www.w3.org/1999/02/22-rdf-syntax-ns#"
   xmlns:svg="http://www.w3.org/2000/svg"
   xmlns="http://www.w3.org/2000/svg"
   xmlns:sodipodi="http://sodipodi.sourceforge.net/DTD/sodipodi-0.dtd"
   xmlns:inkscape="http://www.inkscape.org/namespaces/inkscape"
   width="336.51251"
   height="238.59625"
   id="svg3919"
   version="1.1"
   inkscape:version="0.48.5 r10040"
   sodipodi:docname="Nowy dokument 11">
  <defs
     id="defs3921" />
  <sodipodi:namedview
     pagecolor="#ffffff"
     bordercolor="#666666"
     borderopacity="1.0"
     inkscape:pageopacity="0.0"
     inkscape:pageshadow="2"
     inkscape:zoom="0.8"
     inkscape:cx="103.25625"
     inkscape:cy="106.79812"
     inkscape:document-units="pt"
     inkscape:current-layer="layer1"
     id="namedview3923"
     showgrid="false"
     units="pt"
     fit-margin-top="0"
     fit-margin-left="0"
     fit-margin-right="0"
     fit-margin-bottom="0"
     inkscape:window-width="511"
     inkscape:window-height="423"
     inkscape:window-x="225"
     inkscape:window-y="225"
     inkscape:window-maximized="0" />
  <metadata
     id="metadata3925">
    <rdf:RDF>
      <cc:Work
         rdf:about="">
        <dc:format>image/svg+xml</dc:format>
        <dc:type
           rdf:resource="http://purl.org/dc/dcmitype/StillImage" />
        <dc:title></dc:title>
      </cc:Work>
    </rdf:RDF>
  </metadata>
  <g
     inkscape:label="Layer 1"
     inkscape:groupmode="layer"
     id="layer1"
     transform="translate(-106.74375,-83.20187)">
    <g
       id="g3793"
       transform="matrix(1.25,0,0,1.25,-161.6475,-287.36188)"
       inkscape:export-xdpi="10.938982"
       inkscape:export-ydpi="10.938982">
      <path
         inkscape:connector-curvature="0"
         id="path8"
         d="m 214.713,443.209 44.12,0 0,44.119 -44.12,0 0,-44.119 z m 134.605,-146.758 134.605,0 0,134.605 -134.605,0 -134.605,0 0,-134.605 134.605,0 z m 90.485,146.758 44.12,0 0,44.119 -44.12,0 0,-44.119 z m -56.272,0 44.119,0 0,44.119 -44.119,0 0,-44.119 z m -56.273,0 44.12,0 0,44.119 -44.12,0 0,-44.119 z m -56.272,0 44.119,0 0,44.119 -44.119,0 0,-44.119 z"
         style="fill:#0088ff;fill-opacity:1;stroke:none" />
      <g
         id="g3789">
        <path
           sodipodi:type="arc"
           style="fill:none;stroke:#ffffff;stroke-width:22.28725052;stroke-miterlimit:4;stroke-opacity:1;stroke-dasharray:none"
           id="path3772"
           sodipodi:cx="550.21674"
           sodipodi:cy="804.84381"
           sodipodi:rx="100.89935"
           sodipodi:ry="100.89935"
           d="m 651.11609,804.84381 c 0,55.72517 -45.17418,100.89935 -100.89935,100.89935 -55.72518,0 -100.89936,-45.17418 -100.89936,-100.89935 0,-55.72517 45.17418,-100.89935 100.89936,-100.89935 55.72517,0 100.89935,45.17418 100.89935,100.89935 z"
           transform="matrix(0.53842444,0,0,0.53842444,53.067861,-70.258073)" />
        <path
           sodipodi:type="star"
           style="fill:#ffffff;fill-opacity:1;stroke:#ffffff;stroke-width:20;stroke-miterlimit:4;stroke-opacity:1;stroke-dasharray:none"
           id="path3778"
           sodipodi:sides="3"
           sodipodi:cx="449.31741"
           sodipodi:cy="700.79138"
           sodipodi:r1="70.664024"
           sodipodi:r2="35.332012"
           sodipodi:arg1="0.78539816"
           sodipodi:arg2="1.8325957"
           inkscape:flatsided="false"
           inkscape:rounded="0"
           inkscape:randomized="0"
           d="m 499.28442,750.75839 -59.1116,-15.8389 -59.11161,-15.83891 43.2727,-43.2727 43.2727,-43.2727 15.83891,59.1116 z"
           transform="matrix(0.1393545,0.42188872,-0.52007807,0.11304474,645.96541,94.306767)"
           inkscape:transform-center-x="-13.615246"
           inkscape:transform-center-y="5.6914958" />
      </g>
    </g>
  </g>
</svg>
