<?xml version="1.0" encoding="UTF-8" standalone="no"?>

<svg
   xmlns:dc="http://purl.org/dc/elements/1.1/"
   xmlns:cc="http://creativecommons.org/ns#"
   xmlns:rdf="http://www.w3.org/1999/02/22-rdf-syntax-ns#"
   xmlns:svg="http://www.w3.org/2000/svg"
   xmlns="http://www.w3.org/2000/svg"
   version="1.1"
   width="160"
   height="40"
   viewBox="0 0 128.00001 31.999999"
   id="svg2985"
   style="fill-rule:evenodd">
  <metadata
     id="metadata3013">
    <rdf:RDF>
      <cc:Work
         rdf:about="">
        <dc:format>image/svg+xml</dc:format>
        <dc:type
           rdf:resource="http://purl.org/dc/dcmitype/StillImage" />
        <dc:title></dc:title>
      </cc:Work>
    </rdf:RDF>
  </metadata>
  <defs
     id="defs3011" />
  <path
     d="m 71.26382,16.412269 1.58977,0 0,-4.222372 c 0,-1.973245 0.79997,-3.7598392 2.09296,-5.0531222 1.29328,-1.293283 3.08015,-2.093255 5.05339,-2.093255 1.97295,0 3.75982,0.799972 5.0531,2.093255 1.29327,1.293283 2.09324,3.0798772 2.09324,5.0531222 l 0,4.222372 1.58949,0 0,10.544492 -17.47195,0 0,-10.544492 z m 4.13114,0 9.20995,0 0,-4.222372 c 0,-1.271822 -0.51562,-2.4230702 -1.34891,-3.2563622 -0.83301,-0.833292 -1.98453,-1.348629 -3.25606,-1.348629 -1.27182,0 -2.42306,0.515337 -3.25635,1.348629 -0.83329,0.833292 -1.34863,1.9845402 -1.34863,3.2563622 l 0,4.222372 z"
     id="path2999"
     style="fill:#ffffff;stroke:none" />
  <path
     d="m 38.793801,15.596484 c -0.690689,-1.217042 -0.26402,-2.763899 0.953016,-3.454591 1.217036,-0.690974 2.763886,-0.264304 3.454575,0.95302 l 2.591355,4.536656 7.000358,-12.1935696 c 0.696054,-1.2170415 2.247422,-1.6394763 3.464458,-0.9431365 1.217036,0.6963397 1.639469,2.2474322 0.943133,3.4647561 L 47.993578,23.996894 45.7871,27.840881 43.585987,23.98701 38.793801,15.596484 z"
     id="path3001"
     style="fill:#ffffff;stroke:none" />
  <path
     d="m 17.427618,20.534396 -3.051062,0 c -0.234089,0 -0.423562,-0.189756 -0.423562,-0.423564 0,-0.01073 2.82e-4,-0.02118 0.0011,-0.03163 l -0.0088,-0.585084 c -0.0031,-0.243125 -0.0048,-0.2948 -0.0048,-0.325579 0,-0.600332 0.0432,-1.15153 0.129328,-1.653595 0.08754,-0.509125 0.220817,-0.967421 0.399561,-1.375173 0.176766,-0.405492 0.439093,-0.832727 0.786979,-1.281988 0.339132,-0.437965 0.761,-0.898238 1.265604,-1.380819 0.497262,-0.47298 0.884116,-0.853906 1.160279,-1.142494 0.27108,-0.283224 0.449258,-0.489923 0.534253,-0.619534 l 0.0076,-0.0113 c 0.122269,-0.192016 0.213194,-0.391091 0.273339,-0.596378 0.06184,-0.211782 0.09262,-0.437683 0.09262,-0.677138 0,-0.328404 -0.05506,-0.6308287 -0.165189,-0.9052984 -0.109844,-0.2744697 -0.276163,-0.526914 -0.498957,-0.7562035 l -0.0031,-0.00339 0,0 C 17.705757,8.5382081 17.450772,8.3676529 17.158232,8.25442 16.857785,8.138081 16.510746,8.0799115 16.11768,8.0799115 c -0.374711,0 -0.713844,0.061276 -1.018526,0.1829798 -0.304118,0.1217042 -0.579998,0.3052487 -0.828488,0.5497865 -0.249337,0.2501853 -0.461683,0.5692704 -0.637321,0.9572553 -0.184108,0.4063389 -0.326707,0.8846849 -0.42808,1.4350359 -0.04094,0.224207 -0.252443,0.374431 -0.476367,0.341675 l 0,5.65e-4 -3.075345,-0.459144 C 9.427935,11.055025 9.270087,10.849457 9.294089,10.624686 9.343509,9.7436722 9.528178,8.928452 9.848391,8.1784608 10.171993,7.4194336 10.633676,6.7287414 11.232876,6.1055371 11.839135,5.474991 12.540272,5.0025756 13.335157,4.6882909 14.125525,4.3757004 15.00597,4.2195464 15.975081,4.2195464 c 1.013444,0 1.929468,0.1581306 2.747508,0.4735449 0.825382,0.318238 1.544874,0.7960185 2.15791,1.4316473 0.605694,0.6282871 1.06173,1.3107904 1.367259,2.0489218 0.306942,0.7406728 0.460271,1.5310438 0.460271,2.3713956 0,0.468462 -0.05648,0.927888 -0.170272,1.375737 -0.112385,0.442765 -0.281528,0.874236 -0.50771,1.292435 -0.223923,0.414529 -0.56955,0.898522 -1.036881,1.451414 -0.452929,0.53595 -1.026433,1.143624 -1.721357,1.822174 -0.341674,0.332639 -0.615578,0.629981 -0.821429,0.890614 -0.193992,0.24595 -0.327273,0.458015 -0.398996,0.634782 -0.07088,0.174791 -0.12368,0.429494 -0.15813,0.763545 -0.03699,0.362571 -0.05168,0.80562 -0.04377,1.329992 0.0025,0.233243 -0.184109,0.424129 -0.417068,0.426953 l -0.0048,0 0,0.0017 z m -3.474624,6.822774 0,-3.931806 c 0,-0.233807 0.189473,-0.423564 0.423562,-0.423564 l 3.051062,0 c 0.233806,0 0.423562,0.189757 0.423562,0.423564 l 0,3.931806 c 0,0.233808 -0.189756,0.423565 -0.423562,0.423565 l -3.051062,0 c -0.234089,0 -0.423562,-0.189757 -0.423562,-0.423565 z"
     id="path3003"
     style="fill:#ffffff;stroke:none" />
  <path
     d="m 102.47387,17.267021 c 0,-0.935794 0.75846,-1.694257 1.69425,-1.694257 0.93551,0 1.69425,0.758463 1.69425,1.694257 0,1.695105 0.68702,3.229537 1.79732,4.340123 1.11058,1.110585 2.64501,1.797324 4.3401,1.797324 1.6951,0 3.22981,-0.686739 4.34039,-1.797324 1.1103,-1.110586 1.79731,-2.645018 1.79731,-4.340123 0,-1.695104 -0.68701,-3.229819 -1.79731,-4.340404 -1.11058,-1.110304 -2.64529,-1.797325 -4.34039,-1.797325 l 0,4.039392 -3.61214,-2.866966 -3.61214,-2.8666827 3.61214,-2.866684 3.61214,-2.866965 0,4.039391 c 2.63033,0 5.01188,1.066253 6.73606,2.7901597 1.7239,1.724189 2.79014,4.10575 2.79014,6.736084 0,2.630052 -1.06624,5.011896 -2.79014,6.735802 -1.72418,1.723907 -4.10573,2.790442 -6.73606,2.790442 -2.63004,0 -5.01187,-1.066535 -6.73577,-2.790442 -1.7239,-1.723906 -2.79015,-4.105467 -2.79015,-6.735802 z"
     id="path3007"
     style="fill:#ffffff;stroke:none" />
</svg>
