<?xml version="1.0" encoding="UTF-8" standalone="no"?>

<svg
   xmlns:dc="http://purl.org/dc/elements/1.1/"
   xmlns:cc="http://creativecommons.org/ns#"
   xmlns:rdf="http://www.w3.org/1999/02/22-rdf-syntax-ns#"
   xmlns:svg="http://www.w3.org/2000/svg"
   xmlns="http://www.w3.org/2000/svg"
   version="1.1"
   width="192.00043"
   height="48"
   viewBox="0 0 153.60035 38.399998"
   id="svg2999"
   style="fill-rule:evenodd">
  <metadata
     id="metadata3019">
    <rdf:RDF>
      <cc:Work
         rdf:about="">
        <dc:format>image/svg+xml</dc:format>
        <dc:type
           rdf:resource="http://purl.org/dc/dcmitype/StillImage" />
        <dc:title></dc:title>
      </cc:Work>
    </rdf:RDF>
  </metadata>
  <defs
     id="defs3017" />
  <path
     d="m 68.11626,5.0952732 0,8.9260248 5.166468,5.166129 -5.166468,5.166468 0,8.950761 c -7.010836,0 -14.021334,0 -21.031831,0 l 0,-8.938223 -5.166807,-5.166468 5.166807,-5.166468 0,-8.9382238 c 3.677893,0 17.353599,0 21.031831,0 z m -2.503773,2.5037734 -16.024285,0 0,3.9306764 0,15.340483 0,3.930677 16.024285,0 0,-3.943214 0,-15.340483 0,-3.9181394 z"
     id="path3007"
     style="fill:#ffffff;stroke:none" />
  <path
     d="m 144.91626,5.0952732 0,8.9260248 5.16647,5.166129 -5.16647,5.166468 0,8.950761 c -7.01049,0 -14.02133,0 -21.03183,0 l 0,-8.938223 -5.16647,-5.166468 5.16647,-5.166468 0,-8.9382238 c 3.67823,0 17.35394,0 21.03183,0 z m -12.34673,16.6464168 0,5.128516 0.0437,-0.04371 7.62652,-7.62619 -7.65804,-7.658043 -0.0122,-0.01254 0,5.128856 -3.54811,0 0,5.083111 3.54811,0 z m 9.84296,-14.1426434 -16.02428,0 0,3.9306764 0,15.340483 0,3.930677 16.02428,0 0,-3.943214 0,-15.340483 0,-3.9181394 z"
     id="path3009"
     style="fill:#ffffff;stroke:none" />
  <path
     d="m 106.51626,5.0952732 0,9.9978118 0,18.211571 c -7.010496,0 -14.021332,0 -21.03183,0 l 0,-28.2093828 c 3.677894,0 17.3536,0 21.03183,0 z m -2.50377,2.5037734 -16.024286,0 0,23.2018364 16.024286,0 0,-23.2018364 z"
     id="path3011"
     style="fill:#ffffff;stroke:none" />
  <path
     d="m 28.106375,21.74169 -17.812743,0 0,5.128516 0,0 -7.670241,-7.670241 7.670241,-7.670242 0,0 0,5.128856 17.812743,0 0,-5.128856 0.01254,0.01254 7.657704,7.658043 -7.626191,7.62619 -0.04405,0.04371 0,-5.128516 z"
     id="path3013"
     style="fill:#ffffff;stroke:none" />
</svg>
