<?xml version="1.0" encoding="UTF-8" standalone="no"?>

<svg
   xmlns:dc="http://purl.org/dc/elements/1.1/"
   xmlns:cc="http://creativecommons.org/ns#"
   xmlns:rdf="http://www.w3.org/1999/02/22-rdf-syntax-ns#"
   xmlns:svg="http://www.w3.org/2000/svg"
   xmlns="http://www.w3.org/2000/svg"
   version="1.1"
   width="95.99958"
   height="48"
   viewBox="0 0 76.799667 38.399998"
   id="svg2985"
   style="fill-rule:evenodd">
  <metadata
     id="metadata3001">
    <rdf:RDF>
      <cc:Work
         rdf:about="">
        <dc:format>image/svg+xml</dc:format>
        <dc:type
           rdf:resource="http://purl.org/dc/dcmitype/StillImage" />
        <dc:title></dc:title>
      </cc:Work>
    </rdf:RDF>
  </metadata>
  <defs
     id="defs2999" />
  <path
     d="m 20.629617,5.0952714 9.997473,9.9978116 0,18.211572 c -7.010498,0 -14.020995,0 -21.031832,0 l 0,-28.2093836 c 3.678233,0 7.356465,0 11.034359,0 z m 0.733613,4.2739333 0,4.9902653 4.989926,0 -4.989926,-4.9902653 z m -2.503773,-1.77016 -6.760426,0 0,23.2018363 16.024624,0 0,-13.937638 -9.264198,0 0,-9.2641983 z"
     id="path2993"
     style="fill:#ffffff;stroke:none" />
  <path
     d="m 60.14139,30.763269 c 0,1.403522 -1.137863,2.541386 -2.541386,2.541386 -1.403523,0 -2.541386,-1.137864 -2.541386,-2.541386 l 0,-15.939234 -3.549469,3.549469 c -0.992157,0.992157 -2.601362,0.992157 -3.593519,0 -0.992496,-0.992157 -0.992496,-2.601362 0,-3.593858 l 9.684374,-9.6843746 9.684713,9.6843746 c 0.992835,0.992496 0.992835,2.601701 0,3.593858 -0.992834,0.992157 -2.602379,0.992157 -3.593858,0 l -3.549469,-3.549469 0,15.939234 z"
     id="path2995"
     style="fill:#ffffff;stroke:none" />
</svg>
