<?xml version="1.0" encoding="UTF-8" standalone="no"?>

<svg
   xmlns:dc="http://purl.org/dc/elements/1.1/"
   xmlns:cc="http://creativecommons.org/ns#"
   xmlns:rdf="http://www.w3.org/1999/02/22-rdf-syntax-ns#"
   xmlns:svg="http://www.w3.org/2000/svg"
   xmlns="http://www.w3.org/2000/svg"
   version="1.1"
   width="25"
   height="25"
   viewBox="0 0 20.000001 19.999999"
   id="svg2985"
   style="fill-rule:evenodd">
  <metadata
     id="metadata2999">
    <rdf:RDF>
      <cc:Work
         rdf:about="">
        <dc:format>image/svg+xml</dc:format>
        <dc:type
           rdf:resource="http://purl.org/dc/dcmitype/StillImage" />
        <dc:title></dc:title>
      </cc:Work>
    </rdf:RDF>
  </metadata>
  <defs
     id="defs2997" />
  <path
     d="m 9.9999995,6.885544 c -0.8601883,0 -1.6388402,0.348735 -2.2023577,0.912075 -0.5635169,0.563517 -0.912075,1.34217 -0.912075,2.202359 0,0.860012 0.3485581,1.63884 0.912075,2.202357 0.5635175,0.563518 1.3421694,0.912076 2.2023577,0.912076 0.8600125,0 1.6388425,-0.348558 2.2021825,-0.912076 0.563517,-0.563517 0.912252,-1.342345 0.912252,-2.202357 0,-0.860189 -0.348735,-1.638842 -0.912252,-2.202359 -0.56334,-0.56334 -1.34217,-0.912075 -2.2021825,-0.912075 z m 4.8485775,1.896862 1.642722,0 0,2.435142 -1.642722,0 c -0.132011,0.526808 -0.347499,1.020437 -0.631641,1.466062 l 1.18704,1.186686 -1.722142,1.721966 -1.233808,-1.233984 c -0.381914,0.214959 -0.794889,0.381208 -1.230454,0.490275 l 0,1.6429 -2.4351427,0 0,-1.6429 C 8.2669162,14.719543 7.7833468,14.510408 7.3451343,14.235268 L 6.2235711,15.356831 4.5016056,13.634865 5.6586422,12.478005 C 5.4353885,12.087796 5.2633155,11.664585 5.1514239,11.217548 l -1.6429002,0 0,-2.435142 1.6429002,0 C 5.2604917,8.346841 5.4267407,7.933866 5.6416996,7.551952 L 4.5016056,6.412034 6.2235711,4.690069 7.3163668,5.783042 C 7.7619918,5.498901 8.2556212,5.283236 8.7824293,5.151401 l 0,-1.6429 2.4351427,0 0,1.6429 c 0.447037,0.111892 0.87007,0.283965 1.26028,0.507219 l 1.203982,-1.203982 1.722142,1.721965 -1.168685,1.168685 c 0.27514,0.438036 0.484275,0.921782 0.613286,1.437118 z"
     id="path2993"
     style="fill:#000000;stroke:none" />
</svg>
