<?xml version="1.0" encoding="UTF-8" standalone="no"?>

<svg
   xmlns:dc="http://purl.org/dc/elements/1.1/"
   xmlns:cc="http://creativecommons.org/ns#"
   xmlns:rdf="http://www.w3.org/1999/02/22-rdf-syntax-ns#"
   xmlns:svg="http://www.w3.org/2000/svg"
   xmlns="http://www.w3.org/2000/svg"
   version="1.1"
   width="48"
   height="48"
   id="svg3055">
  <defs
     id="defs3057" />
  <metadata
     id="metadata3060">
    <rdf:RDF>
      <cc:Work
         rdf:about="">
        <dc:format>image/svg+xml</dc:format>
        <dc:type
           rdf:resource="http://purl.org/dc/dcmitype/StillImage" />
        <dc:title></dc:title>
      </cc:Work>
    </rdf:RDF>
  </metadata>
  <g
     transform="translate(-371.35217,-547.43842)"
     id="layer1">
    <path
       d="m 386.04921,559.13581 c -0.97589,0 -1.85098,0.37485 -2.47743,0.98097 -0.61417,0.59468 -0.99411,1.41428 -0.99411,2.31774 0,0.90347 0.37994,1.72349 0.99411,2.31775 0.62645,0.60612 1.50154,0.98097 2.47743,0.98097 0.97589,0 1.85097,-0.37485 2.47742,-0.98097 0.61417,-0.59426 0.99411,-1.41428 0.99411,-2.31775 0,-0.90346 -0.37994,-1.72306 -0.99411,-2.31774 -0.62645,-0.60612 -1.50153,-0.98097 -2.47742,-0.98097 z m 17.28057,1.93653 c 0.75225,-0.73192 1.9556,-0.7154 2.68752,0.0373 0.73193,0.75225 0.7154,1.9556 -0.0373,2.68752 l -18.60549,18.00741 c -0.75267,0.73192 -1.95602,0.7154 -2.68794,-0.0369 -0.73192,-0.75267 -0.71498,-1.95602 0.0373,-2.68794 l 18.60591,-18.00741 z m 1.32534,16.07088 c -0.9759,0 -1.8514,0.37485 -2.47743,0.98097 -0.61459,0.59469 -0.99453,1.41428 -0.99453,2.31775 0,0.90346 0.37994,1.72348 0.99453,2.31816 0.62603,0.6057 1.50153,0.98098 2.47743,0.98098 0.97546,0 1.85097,-0.37528 2.477,-0.98098 0.61459,-0.59468 0.99453,-1.4147 0.99453,-2.31816 0,-0.90347 -0.37994,-1.72306 -0.99453,-2.31775 -0.62603,-0.60612 -1.50154,-0.98097 -2.477,-0.98097 z m -5.1281,-1.74382 c 1.31983,-1.27789 3.13353,-2.06826 5.1281,-2.06826 1.99414,0 3.80784,0.79037 5.12767,2.06826 1.33211,1.28891 2.15594,3.07169 2.15594,5.04254 0,1.97084 -0.82383,3.75405 -2.15594,5.04295 -1.31983,1.2779 -3.13353,2.06827 -5.12767,2.06827 -1.99457,0 -3.80827,-0.79037 -5.1281,-2.06827 -1.33211,-1.2889 -2.15594,-3.07211 -2.15594,-5.04295 0,-1.97085 0.82383,-3.75363 2.15594,-5.04254 z m -18.60548,-18.00783 c 1.31982,-1.27747 3.13353,-2.06784 5.12767,-2.06784 1.99414,0 3.80784,0.79037 5.12767,2.06784 1.33212,1.28933 2.15594,3.07211 2.15594,5.04295 0,1.97085 -0.82382,3.75405 -2.15594,5.04296 -1.31983,1.27747 -3.13353,2.06784 -5.12767,2.06784 -1.99414,0 -3.80785,-0.79037 -5.12767,-2.06784 -1.33211,-1.28891 -2.15594,-3.07211 -2.15594,-5.04296 0,-1.97084 0.82383,-3.75362 2.15594,-5.04295 z"
       id="path3007"
       style="fill:#ffffff;stroke:none" />
  </g>
</svg>
