<?xml version="1.0" encoding="UTF-8" standalone="no"?>

<svg
   xmlns:dc="http://purl.org/dc/elements/1.1/"
   xmlns:cc="http://creativecommons.org/ns#"
   xmlns:rdf="http://www.w3.org/1999/02/22-rdf-syntax-ns#"
   xmlns:svg="http://www.w3.org/2000/svg"
   xmlns="http://www.w3.org/2000/svg"
   version="1.1"
   width="96"
   height="48"
   viewBox="0 0 76.800003 38.399998"
   id="svg2991"
   style="fill-rule:evenodd">
  <metadata
     id="metadata3009">
    <rdf:RDF>
      <cc:Work
         rdf:about="">
        <dc:format>image/svg+xml</dc:format>
        <dc:type
           rdf:resource="http://purl.org/dc/dcmitype/StillImage" />
        <dc:title></dc:title>
      </cc:Work>
    </rdf:RDF>
  </metadata>
  <defs
     id="defs3007" />
  <path
     d="m 10.5111,13.766144 c -0.8946,-0.89321 -0.8946,-2.34146 0,-3.23434 0.8911,-0.8932101 2.338,-0.8932101 3.2326,0 l 14.1469,14.14773 c 0.8946,0.89321 0.8946,2.34113 0,3.23434 -0.8912,0.89321 -2.3414,0.89321 -3.2326,0 L 10.5111,13.766144 z"
     id="path2999"
     style="fill:#ffffff;stroke:none" />
  <path
     d="m 24.658,10.513174 c 0.8912,-0.8932101 2.3414,-0.8932101 3.2326,0 0.8946,0.89287 0.8946,2.34112 0,3.234 l -14.1469,14.14806 c -0.8946,0.89287 -2.3415,0.89287 -3.2326,0 -0.8946,-0.89321 -0.8946,-2.34112 0,-3.23434 L 24.658,10.513174 z"
     id="path3001"
     style="fill:#ffffff;stroke:none" />
  <path
     d="m 49.4651,20.229394 c -0.5625,-1.12498 -0.1084,-2.49293 1.0165,-3.05542 1.125,-0.56249 2.494,-0.1064 3.0565,1.01859 l 2.0229,4.04351 6.0925,-12.19221 c 0.5625,-1.1300701 1.9348,-1.5898901 3.0632,-1.0274001 1.1317,0.56249 1.5926,1.9345001 1.0301,3.0645701 l -8.1324,16.27504 -0.01,-0.003 c -0.21,0.42763 -0.5591,0.79223 -1.0199,1.02198 -1.125,0.56249 -2.4905,0.1064 -3.053,-1.01859 l -4.0662,-8.12668 z"
     id="path3003"
     style="fill:#ffffff;stroke:none" />
</svg>
