<?xml version="1.0" encoding="UTF-8" standalone="no"?>

<svg
   xmlns:dc="http://purl.org/dc/elements/1.1/"
   xmlns:cc="http://creativecommons.org/ns#"
   xmlns:rdf="http://www.w3.org/1999/02/22-rdf-syntax-ns#"
   xmlns:svg="http://www.w3.org/2000/svg"
   xmlns="http://www.w3.org/2000/svg"
   version="1.1"
   width="48"
   height="48"
   id="svg3055">
  <defs
     id="defs3057" />
  <metadata
     id="metadata3060">
    <rdf:RDF>
      <cc:Work
         rdf:about="">
        <dc:format>image/svg+xml</dc:format>
        <dc:type
           rdf:resource="http://purl.org/dc/dcmitype/StillImage" />
        <dc:title></dc:title>
      </cc:Work>
    </rdf:RDF>
  </metadata>
  <g
     transform="translate(-387.37775,-562.17133)"
     id="layer1">
    <path
       d="m 396.87059,589.34848 c -1.75439,0 -3.1767,-1.42276 -3.1767,-3.17716 0,-1.7544 1.42231,-3.17673 3.1767,-3.17673 l 11.33024,0 0,-11.33035 c 0,-1.7544 1.42274,-3.17673 3.17671,-3.17673 1.75439,0 3.17713,1.42233 3.17713,3.17673 l 0,11.33035 11.32982,0 c 1.75439,0 3.17712,1.42233 3.17712,3.17673 0,1.7544 -1.42273,3.17716 -3.17712,3.17716 l -11.32982,0 0,11.32992 c 0,1.7544 -1.42274,3.17673 -3.17713,3.17673 -1.75397,0 -3.17671,-1.42233 -3.17671,-3.17673 l 0,-11.32992 -11.33024,0 z"
       id="path2995"
       style="fill:#ffffff;stroke:none" />
  </g>
</svg>
