<?xml version="1.0" encoding="UTF-8" standalone="no"?>

<svg
   xmlns:dc="http://purl.org/dc/elements/1.1/"
   xmlns:cc="http://creativecommons.org/ns#"
   xmlns:rdf="http://www.w3.org/1999/02/22-rdf-syntax-ns#"
   xmlns:svg="http://www.w3.org/2000/svg"
   xmlns="http://www.w3.org/2000/svg"
   version="1.1"
   width="40"
   height="40"
   viewBox="0 0 32.000001 31.999999"
   id="svg2985"
   style="fill-rule:evenodd">
  <metadata
     id="metadata2999">
    <rdf:RDF>
      <cc:Work
         rdf:about="">
        <dc:format>image/svg+xml</dc:format>
        <dc:type
           rdf:resource="http://purl.org/dc/dcmitype/StillImage" />
        <dc:title></dc:title>
      </cc:Work>
    </rdf:RDF>
  </metadata>
  <defs
     id="defs2997" />
  <path
     d="m 7.3702363,13.229172 c 0.7649504,0 1.4578955,0.310329 1.9591089,0.811542 0.5014957,0.501496 0.8115418,1.194159 0.8115418,1.959109 0,0.764951 -0.3100461,1.457896 -0.8115418,1.959109 -0.5012134,0.501496 -1.1941585,0.811825 -1.9591089,0.811825 -0.7649504,0 -1.4578955,-0.310329 -1.9591089,-0.811825 -0.5014957,-0.501213 -0.811542,-1.194158 -0.811542,-1.959109 0,-0.76495 0.3100463,-1.457613 0.811542,-1.959109 0.5012134,-0.501213 1.1941585,-0.811542 1.9591089,-0.811542 z m 8.6296237,0 c 0.76495,0 1.457895,0.310329 1.959391,0.811542 0.501213,0.501496 0.81126,1.194159 0.81126,1.959109 0,0.764951 -0.310047,1.457896 -0.81126,1.959109 -0.501496,0.501496 -1.194441,0.811825 -1.959391,0.811825 -0.764951,0 -1.457614,-0.310329 -1.959109,-0.811825 -0.501214,-0.501213 -0.811542,-1.194158 -0.811542,-1.959109 0,-0.76495 0.310328,-1.457613 0.811542,-1.959109 0.501495,-0.501213 1.194158,-0.811542 1.959109,-0.811542 z m 8.629905,0 c 0.764951,0 1.457896,0.310329 1.959109,0.811542 0.501213,0.501496 0.811542,1.194159 0.811542,1.959109 0,0.764951 -0.310329,1.457896 -0.811542,1.959109 -0.501213,0.501496 -1.194158,0.811825 -1.959109,0.811825 -0.76495,0 -1.457895,-0.310329 -1.959109,-0.811825 -0.501495,-0.501213 -0.811542,-1.194158 -0.811542,-1.959109 0,-0.76495 0.310047,-1.457613 0.811542,-1.959109 0.501214,-0.501213 1.194159,-0.811542 1.959109,-0.811542 z"
     id="path2993"
     style="fill:#ffffff;stroke:none" />
</svg>
