<?xml version="1.0" encoding="UTF-8" standalone="no"?>

<svg
   xmlns:dc="http://purl.org/dc/elements/1.1/"
   xmlns:cc="http://creativecommons.org/ns#"
   xmlns:rdf="http://www.w3.org/1999/02/22-rdf-syntax-ns#"
   xmlns:svg="http://www.w3.org/2000/svg"
   xmlns="http://www.w3.org/2000/svg"
   version="1.1"
   width="100"
   height="100"
   viewBox="0 0 100 100"
   id="Capa_1"
   xml:space="preserve"><metadata
   id="metadata13"><rdf:RDF><cc:Work
       rdf:about=""><dc:format>image/svg+xml</dc:format><dc:type
         rdf:resource="http://purl.org/dc/dcmitype/StillImage" /><dc:title></dc:title></cc:Work></rdf:RDF></metadata><defs
   id="defs11" />

<g
   transform="scale(0.5519699,0.5519699)"
   id="g3016"><path
     d="m 0,0 181.1693,0 0,181.1693 L 0,181.1693 0,0 z"
     id="path3018"
     style="fill:#33cc33;fill-opacity:1;fill-rule:evenodd;stroke:none" /><path
     d="m 88.511813,36.000001 c 0.212599,-0.177165 0.354331,-0.354331 0.56693,-0.566929 l 22.499997,22.5 c 9.7441,-10.948819 9.28347,-18.035433 12.96851,-21.720473 4.99606,-5.031496 13.57086,-4.606299 19.06299,0.92126 5.52756,5.527559 5.95276,14.06693 0.92126,19.098426 -3.64961,3.685039 -10.73622,3.22441 -21.72047,12.968504 l 22.5,22.535434 c -2.40945,2.409449 -4.88977,4.712599 -7.54725,6.909449 -13.53543,13.074808 -11.58661,15.803148 -19.06299,12.401578 -4.32283,-2.51575 -5.10236,-11.338586 -7.61811,-13.818901 l 0,0 0,0 c -0.0354,-0.07087 -0.1063,-0.106299 -0.14173,-0.177165 l 0,0 c -0.0709,-0.03543 -0.14173,-0.106299 -0.2126,-0.177166 l 0,0 c -0.0709,-0.03543 -0.14173,-0.106299 -0.17717,-0.141732 l 0,0 c -0.0709,-0.07087 -0.14173,-0.141732 -0.21259,-0.177165 l 0,0 c -0.0709,-0.03543 -0.1063,-0.106299 -0.17717,-0.141733 l 0,0 c -0.0709,-0.07087 -0.14173,-0.106299 -0.2126,-0.177165 l 0,0 c -0.0709,-0.03543 -0.14173,-0.07087 -0.17716,-0.141732 l 0,0 -0.2126,-0.141732 0,0 c -0.0709,0 -0.14173,-0.07087 -0.2126,-0.1063 l 0,0 c -0.0709,-0.03543 -0.14173,-0.106299 -0.2126,-0.106299 l 0,0 c -0.0709,-0.03543 -0.17716,-0.106299 -0.24803,-0.106299 l 0,0 c -0.0709,-0.07087 -0.14173,-0.07087 -0.2126,-0.141732 l 0,0 c -0.0709,-0.03543 -0.14173,-0.07087 -0.2126,-0.1063 l 0,0 c -0.1063,-0.03543 -0.17716,-0.03543 -0.24803,-0.106299 l 0,0 c -0.0709,0 -0.14173,-0.03543 -0.2126,-0.07087 l 0,0 -0.2126,-0.07087 0,0 c -0.10629,-0.07087 -0.17716,-0.07087 -0.24803,-0.106299 l 0,0 c -0.0709,-0.03543 -0.17716,-0.03543 -0.24803,-0.07087 l 0,0 c -0.0709,-0.03543 -0.14173,-0.03543 -0.2126,-0.07087 l 0,0 c -0.0709,-0.03543 -0.17716,-0.03543 -0.24803,-0.07087 l 0,0 c -0.1063,0 -0.17716,-0.03543 -0.24803,-0.03543 l 0,0 c -0.0709,-0.03543 -0.14173,-0.03543 -0.24803,-0.07087 l 0,0 c -0.0709,0 -0.14173,0 -0.24803,-0.03543 l 0,0 c -0.0709,-0.03543 -0.14174,-0.03543 -0.2126,-0.03543 l 0,0 c -0.1063,0 -0.17717,-0.03543 -0.28347,-0.03543 l 0,0 c -0.0709,-0.03543 -0.14173,-0.03543 -0.21259,-0.03543 l 0,0 c -0.1063,0 -0.17717,0 -0.24804,0 l 0,0 c -0.1063,0 -0.17716,-0.03543 -0.24803,-0.03543 l 0,0 -0.28346,0 0,0 -0.2126,0 0,0 -0.28346,0 0,0 -0.2126,0 0,0 c -0.1063,0 -0.17717,0.03543 -0.28347,0.03543 l 0,0 c -0.0709,0 -0.14173,0 -0.24803,0 l 0,0 c -0.0709,0 -0.17716,0 -0.24803,0.03543 l 0,0 c -0.0709,0 -0.14173,0.03543 -0.24803,0.03543 l 0,0 c -0.0709,0 -0.17717,0 -0.24803,0.03543 l 0,0 c -0.0709,0.03543 -0.17717,0.03543 -0.24804,0.03543 l 0,0 c -0.10629,0.03543 -0.17716,0.03543 -0.24803,0.07087 l 0,0 c -0.0709,0 -0.17716,0.03543 -0.24803,0.03543 l 0,0 c -0.1063,0.03543 -0.14173,0.03543 -0.24803,0.07087 l 0,0 c -0.0709,0.03543 -0.17717,0.03543 -0.24803,0.07087 l 0,0 c -0.0709,0.03543 -0.14173,0.03543 -0.24803,0.07087 l 0,0 c -0.0709,0.03543 -0.17717,0.03543 -0.24803,0.106299 l 0,0 c -0.0709,0 -0.14174,0.03543 -0.24804,0.07087 l 0,0 c -0.0709,0 -0.17716,0.07087 -0.24803,0.07087 l 0,0 c -0.0709,0.03543 -0.14173,0.07087 -0.2126,0.106299 l 0,0 c -0.1063,0.03543 -0.177161,0.07087 -0.248027,0.1063 l 0,0 c -0.1063,0.03543 -0.177166,0.07087 -0.248032,0.106299 l 0,0 c -0.07087,0.03543 -0.141732,0.106299 -0.248031,0.106299 l 0,0 c -0.07087,0.03543 -0.141733,0.106299 -0.248032,0.106299 l 0,0 c -0.07087,0.07087 -0.141732,0.106299 -0.212598,0.141733 l 0,0 c -0.07087,0.07087 -0.141733,0.07087 -0.212599,0.141732 l 0,0 c -0.106299,0.03543 -0.177165,0.07087 -0.248031,0.141732 l 0,0 c -0.07087,0.03543 -0.177166,0.07087 -0.248032,0.141732 l 0,0 c -0.07087,0.07087 -0.141732,0.1063 -0.212598,0.141733 l 0,0 c -0.07087,0.07087 -0.141733,0.106299 -0.212599,0.141732 l 0,0 c -0.07087,0.07087 -0.141732,0.141732 -0.212598,0.177165 l 0,0 c -0.07087,0.07087 -0.141732,0.1063 -0.212599,0.177166 l 0,0 c -0.07087,0.07087 -0.141732,0.106299 -0.212598,0.177165 l 0,0 c -0.07087,0.03543 -0.141732,0.106299 -0.212598,0.177165 l 0,0 c -0.07087,0.07087 -0.141733,0.141733 -0.212599,0.177166 l 0,0 -0.106299,0.106299 -0.177165,0.141732 0,0 c -0.03543,0.07087 -0.1063,0.141733 -0.177166,0.212599 l 0,0 c -0.03543,0.07087 -0.106299,0.141732 -0.177165,0.212598 l 0,0 c -0.07087,0.07087 -0.106299,0.141732 -0.177165,0.212599 l 0,0 c -0.03543,0.07087 -0.1063,0.141732 -0.177166,0.212598 l 0,0 c -0.03543,0.07087 -0.07087,0.141732 -0.141732,0.212598 l 0,0 c -0.07087,0.1063 -0.106299,0.177166 -0.141732,0.248032 l 0,0 c -0.07087,0.07087 -0.141733,0.141732 -0.177166,0.212598 l 0,0 c -0.03543,0.1063 -0.106299,0.177166 -0.141732,0.248032 l 0,0 c -0.03543,0.07087 -0.106299,0.141732 -0.141732,0.212598 l 0,0 c -0.03543,0.07087 -0.1063,0.141733 -0.1063,0.24803 l 0,0 c -0.07087,0.0709 -0.106299,0.14173 -0.141732,0.24803 l 0,0 c -0.07087,0.0709 -0.07087,0.14174 -0.141732,0.2126 l 0,0 c -0.03543,0.0709 -0.07087,0.14173 -0.106299,0.24803 l 0,0 c -0.03543,0.0709 -0.07087,0.14174 -0.1063,0.24803 l 0,0 c -0.03543,0.0709 -0.07087,0.14174 -0.106299,0.2126 l 0,0 c -0.03543,0.0709 -0.07087,0.17717 -0.106299,0.24803 l 0,0 c 0,0.1063 -0.07087,0.17717 -0.07087,0.24804 l 0,0 c -0.03543,0.0709 -0.07087,0.17716 -0.106299,0.24803 l 0,0 c -0.03543,0.1063 -0.03543,0.17716 -0.07087,0.24803 l 0,0 c -0.03543,0.0709 -0.03543,0.14173 -0.07087,0.24803 l 0,0 c -0.03543,0.0709 -0.03543,0.17717 -0.07087,0.24803 l 0,0 c -0.03543,0.0709 -0.03543,0.14173 -0.07087,0.24803 l 0,0 c -0.03543,0.1063 -0.03543,0.17717 -0.03543,0.24804 l 0,0 c -0.03543,0.0709 -0.07087,0.17716 -0.07087,0.24803 l 0,0 c 0,0.1063 -0.03543,0.17716 -0.03543,0.24803 l 0,0 c -0.03543,0.0709 -0.03543,0.17716 -0.03543,0.24803 l 0,0 c 0,0.0709 -0.03543,0.17717 -0.03543,0.24803 l 0,0 c 0,0.1063 0,0.17717 0,0.24803 l 0,0 c -0.03543,0.0709 -0.03543,0.17717 -0.03543,0.24803 l 0,0 c -0.03543,0.1063 -0.03543,0.17717 -0.03543,0.24804 l 0,0 0,0.28346 0,0 0,0.2126 0,0 0,0.28346 0,0 0,0.2126 0,0 c 0,0.1063 0,0.17717 0.03543,0.28347 l 0,0 c 0,0.0709 0,0.14173 0.03543,0.21259 l 0,0 c 0,0.1063 0,0.17717 0,0.28347 l 0,0 c 0,0.0709 0.03543,0.14173 0.03543,0.2126 l 0,0 c 0,0.1063 0,0.17716 0.03543,0.24803 l 0,0 c 0,0.1063 0.03543,0.17716 0.03543,0.24803 l 0,0 c 0,0.0709 0.03543,0.17717 0.07087,0.24803 l 0,0 c 0,0.0709 0,0.17717 0.03543,0.24803 l 0,0 c 0.03543,0.0709 0.03543,0.14174 0.07087,0.2126 l 0,0 c 0.03543,0.1063 0.03543,0.17717 0.07087,0.24803 l 0,0 c 0.03543,0.0709 0.03543,0.17717 0.07087,0.24804 l 0,0 c 0.03543,0.0709 0.03543,0.14173 0.1063,0.21259 l 0,0 c 0,0.0709 0.03543,0.14174 0.07087,0.24804 l 0,0 c 0.03543,0.0709 0.07087,0.14173 0.07087,0.21259 l 0,0 c 0.07087,0.1063 0.07087,0.17717 0.106299,0.24804 l 0,0 c 0.03543,0.0709 0.07087,0.14173 0.106299,0.21259 l 0,0 c 0.03543,0.0709 0.07087,0.14174 0.141733,0.2126 l 0,0 c 0,0.0709 0.07087,0.14173 0.106299,0.2126 l 0,0 c 0.03543,0.0709 0.07087,0.14173 0.106299,0.2126 l 0,0 c 0.07087,0.0709 0.07087,0.14173 0.141732,0.2126 l 0,0 0.141733,0.2126 0,0 0.141732,0.21259 0,0 c 0.03543,0.0709 0.07087,0.14174 0.141732,0.2126 l 0,0 c 0.07087,0.0709 0.1063,0.14173 0.141733,0.2126 l 0,0 c 0.07087,0.0354 0.106299,0.1063 0.177165,0.17717 l 0,0 c 0.03543,0.0709 0.106299,0.1063 0.177165,0.17716 l 0,0 c 0.03543,0.0709 0.1063,0.14173 0.141733,0.2126 l 0,0 0.212598,0.17717 0,0 0,0 c 2.480315,2.48031 11.303149,3.25984 13.783459,7.58267 3.40158,7.47638 -1.91338,8.14961 -15.023616,21.68504 -1.84252,2.23229 -3.933071,4.57087 -6.377953,7.01575 l 3.330708,-3.36614 c -0.141732,0.17716 -0.35433,0.38976 -0.531496,0.5315 L 69.165356,123.48426 c -6.69685,8.8937 -9.283465,17.43307 -12.543307,20.69291 -5.031496,4.99606 -13.570867,4.57087 -19.098426,-0.92126 -5.527559,-5.52756 -5.952756,-14.06693 -0.92126,-19.09843 3.259843,-3.25984 11.76378,-5.88189 20.692914,-12.57874 L 35.114174,89.39764 c 0.212599,-0.212598 0.389764,-0.35433 0.566929,-0.566929 2.444882,-2.444882 1.417323,-1.204724 3.649607,-3.011811 13.570866,-13.074804 14.173228,-18.425197 21.68504,-15.023622 4.358268,2.480315 5.102362,11.303149 7.61811,13.818898 l 0,0 0,0 0.177165,0.177165 0,0 c 0.03543,0.03543 0.1063,0.106299 0.177166,0.177165 l 0,0 c 0.07087,0.03543 0.141732,0.106299 0.177165,0.141733 l 0,0 c 0.07087,0.07087 0.141732,0.106299 0.212599,0.177165 l 0,0 0.212598,0.141732 0,0 c 0.03543,0.03543 0.106299,0.106299 0.177165,0.177166 l 0,0 0.212599,0.141732 0,0 c 0.07087,0.03543 0.141732,0.07087 0.212598,0.106299 l 0,0 0.212599,0.141732 0,0 c 0.07087,0.03543 0.141732,0.07087 0.212598,0.1063 l 0,0 c 0.07087,0.07087 0.141732,0.07087 0.212599,0.141732 l 0,0 c 0.07087,0.03543 0.141732,0.07087 0.212598,0.106299 l 0,0 c 0.07087,0.03543 0.177165,0.07087 0.248032,0.106299 l 0,0 c 0.07087,0.03543 0.141732,0.07087 0.212598,0.07087 l 0,0 c 0.07087,0.07087 0.141732,0.07087 0.212598,0.1063 l 0,0 c 0.07087,0.03543 0.141733,0.07087 0.248032,0.106299 l 0,0 c 0.07087,0 0.141732,0.07087 0.248031,0.07087 l 0,0 c 0.07087,0.03543 0.141733,0.07087 0.212599,0.07087 l 0,0 c 0.07087,0.03543 0.141732,0.07087 0.248031,0.07087 l 0,0 c 0.07087,0.03543 0.141733,0.07087 0.248032,0.07087 l 0,0 c 0.07087,0 0.141732,0.03543 0.212598,0.07087 l 0,0 c 0.07087,0 0.177166,0 0.248032,0.03543 l 0,0 c 0.07087,0.03543 0.177165,0.03543 0.248031,0.03543 l 0,0 c 0.07087,0 0.141733,0.03543 0.248032,0.07087 l 0,0 c 0.07087,0 0.177165,0 0.248031,0 l 0,0 c 0.07087,0 0.141733,0.03543 0.212599,0.03543 l 0,0 c 0.106299,0 0.177165,0.03543 0.283464,0.03543 l 0,0 c 0.07087,0 0.141733,0 0.212599,0 l 0,0 0.283464,0 0,0 0.248032,0 0,0 0.248031,0 0,0 0.248032,0 0,0 c 0.07087,0 0.177165,0 0.248031,0 l 0,0 c 0.07087,0 0.141733,-0.03543 0.248032,-0.03543 l 0,0 c 0.106299,0 0.177165,-0.03543 0.248031,-0.03543 l 0,0 c 0.07087,0 0.177166,0 0.248032,0 l 0,0 c 0.106299,-0.03543 0.177165,-0.07087 0.248031,-0.07087 l 0,0 c 0.07087,0 0.177166,0 0.248032,-0.03543 l 0,0 c 0.07087,-0.03543 0.177165,-0.03543 0.248031,-0.03543 l 0,0 c 0.1063,-0.03543 0.177166,-0.07087 0.248032,-0.07087 l 0,0 c 0.07087,0 0.177165,-0.03543 0.248031,-0.07087 l 0,0 c 0.1063,0 0.177166,-0.03543 0.248032,-0.07087 l 0,0 c 0.07087,0 0.177165,-0.03543 0.248031,-0.07087 l 0,0 c 0.1063,0 0.177166,-0.07087 0.248032,-0.07087 l 0,0 c 0.07087,-0.03543 0.177165,-0.07087 0.248031,-0.07087 l 0,0 c 0.07087,-0.07087 0.177166,-0.07087 0.248032,-0.1063 l 0,0 c 0.07087,-0.03543 0.141732,-0.07087 0.248031,-0.106299 l 0,0 c 0.07087,-0.03543 0.141733,-0.07087 0.248032,-0.106299 l 0,0 c 0.07087,-0.03543 0.141732,-0.07087 0.212598,-0.106299 l 0,0 c 0.07087,-0.03543 0.177166,-0.07087 0.248032,-0.106299 l 0,0 c 0.07087,-0.03543 0.177165,-0.1063 0.248031,-0.141733 l 0,0 c 0.07087,-0.03543 0.141733,-0.07087 0.212599,-0.106299 l 0,0 c 0.07087,-0.07087 0.177165,-0.106299 0.248031,-0.141732 l 0,0 c 0.07087,-0.07087 0.141732,-0.07087 0.248032,-0.141732 l 0,0 c 0.07087,-0.03543 0.141732,-0.1063 0.212598,-0.141733 l 0,0 c 0.07087,-0.07087 0.141732,-0.106299 0.212599,-0.141732 l 0,0 c 0.07087,-0.07087 0.141732,-0.106299 0.212598,-0.177165 l 0,0 c 0.07087,-0.03543 0.141732,-0.1063 0.248032,-0.177166 l 0,0 c 0.07087,-0.03543 0.141732,-0.07087 0.212598,-0.141732 l 0,0 c 0.07087,-0.07087 0.141732,-0.141732 0.212598,-0.177165 l 0,0 c 0.07087,-0.07087 0.141733,-0.1063 0.212599,-0.177166 l 0,0 c 0.07087,-0.07087 0.141732,-0.141732 0.212598,-0.212598 l 0,0 c 0.03543,0 0.03543,-0.03543 0.106299,-0.07087 0.03543,-0.07087 0.07087,-0.1063 0.141733,-0.141733 l 0,0 c 0.07087,-0.07087 0.106299,-0.141732 0.177165,-0.212598 l 0,0 c 0.07087,-0.07087 0.106299,-0.141732 0.177165,-0.212598 l 0,0 c 0.07087,-0.07087 0.141733,-0.141733 0.177166,-0.212599 l 0,0 c 0.03543,-0.07087 0.106299,-0.141732 0.177165,-0.212598 l 0,0 c 0.03543,-0.07087 0.106299,-0.177166 0.141732,-0.248032 l 0,0 c 0.07087,-0.07087 0.141733,-0.141732 0.177166,-0.212598 l 0,0 c 0.03543,-0.07087 0.106299,-0.141733 0.141732,-0.248032 l 0,0 0.141732,-0.212598 0,0 c 0.03543,-0.07087 0.1063,-0.141732 0.141733,-0.212599 l 0,0 c 0.03543,-0.07087 0.106299,-0.177165 0.141732,-0.248031 l 0,0 c 0.03543,-0.07087 0.07087,-0.141732 0.106299,-0.248032 l 0,0 c 0.07087,-0.07087 0.106299,-0.141732 0.141732,-0.212598 l 0,0 c 0.03543,-0.07087 0.07087,-0.141732 0.1063,-0.248032 l 0,0 c 0.03543,-0.07087 0.07087,-0.177165 0.106299,-0.248031 l 0,0 c 0.03543,-0.07087 0.07087,-0.141732 0.106299,-0.212599 l 0,0 c 0.03543,-0.106299 0.07087,-0.177165 0.07087,-0.248031 l 0,0 c 0.07087,-0.106299 0.07087,-0.177165 0.106299,-0.248032 l 0,0 c 0.03543,-0.07087 0.07087,-0.177165 0.1063,-0.248031 l 0,0 c 0,-0.106299 0.03543,-0.177165 0.07087,-0.248032 l 0,0 c 0.03543,-0.07087 0.07087,-0.177165 0.07087,-0.248031 l 0,0 c 0.03543,-0.07087 0.07087,-0.141732 0.07087,-0.248032 l 0,0 c 0,-0.07087 0.03543,-0.177165 0.07087,-0.248031 l 0,0 c 0,-0.07087 0.03543,-0.141732 0.07087,-0.248032 l 0,0 c 0,-0.07087 0,-0.177165 0.03543,-0.248031 l 0,0 c 0,-0.07087 0.03543,-0.141732 0.03543,-0.248032 l 0,0 c 0,-0.106299 0.03543,-0.177165 0.03543,-0.248031 l 0,0 c 0.03543,-0.07087 0.03543,-0.177165 0.03543,-0.248032 l 0,0 c 0,-0.106299 0,-0.177165 0.03543,-0.248031 l 0,0 c 0,-0.07087 0,-0.177165 0.03543,-0.283465 l 0,0 0,-0.212598 0,0 c 0,-0.106299 0,-0.177165 0,-0.283465 l 0,0 0,-0.212598 0,0 0,-0.283465 0,0 c 0,-0.07087 0,-0.141732 0,-0.212598 l 0,0 0,-0.283465 0,0 c -0.03543,-0.07087 -0.03543,-0.141732 -0.03543,-0.212598 l 0,0 c -0.03543,-0.106299 -0.03543,-0.177165 -0.03543,-0.283465 l 0,0 c 0,-0.07087 0,-0.141732 -0.03543,-0.212598 l 0,0 c 0,-0.106299 -0.03543,-0.177165 -0.03543,-0.283465 l 0,0 c 0,-0.07087 -0.03543,-0.141732 -0.03543,-0.212598 l 0,0 c -0.03543,-0.07087 -0.03543,-0.177165 -0.03543,-0.248032 l 0,0 c -0.03543,-0.106299 -0.07087,-0.177165 -0.07087,-0.248031 l 0,0 c -0.03543,-0.07087 -0.07087,-0.141732 -0.07087,-0.212599 l 0,0 c 0,-0.106299 -0.03543,-0.177165 -0.07087,-0.248031 l 0,0 c -0.03543,-0.106299 -0.07087,-0.177165 -0.07087,-0.248032 l 0,0 c -0.03543,-0.07087 -0.07087,-0.141732 -0.07087,-0.212598 l 0,0 c -0.03543,-0.07087 -0.07087,-0.177165 -0.1063,-0.248031 l 0,0 c -0.03543,-0.07087 -0.03543,-0.141733 -0.106299,-0.248032 l 0,0 c 0,-0.07087 -0.03543,-0.141732 -0.07087,-0.212598 l 0,0 c -0.03543,-0.07087 -0.07087,-0.141733 -0.106299,-0.212599 l 0,0 c -0.03543,-0.07087 -0.07087,-0.141732 -0.106299,-0.212598 l 0,0 c -0.03543,-0.07087 -0.07087,-0.141733 -0.1063,-0.212599 l 0,0 c -0.07087,-0.07087 -0.106299,-0.141732 -0.141732,-0.212598 l 0,0 -0.141732,-0.212599 0,0 -0.141732,-0.212598 0,0 -0.141733,-0.212598 0,0 c -0.03543,-0.07087 -0.07087,-0.141733 -0.141732,-0.177166 l 0,0 c -0.03543,-0.07087 -0.07087,-0.141732 -0.141732,-0.212598 l 0,0 c -0.07087,-0.07087 -0.106299,-0.141732 -0.141733,-0.212599 l 0,0 c -0.07087,-0.07087 -0.141732,-0.106299 -0.177165,-0.177165 l 0,0 -0.177165,-0.177165 0,0 c -0.07087,-0.07087 -0.141733,-0.141733 -0.177166,-0.212599 l 0,0 0,0 C 81.035435,67.181104 72.2126,66.401577 69.732285,62.114175 66.33071,54.602364 69.059057,56.551183 82.133861,43.015749 c 0.531496,-0.673228 6.271653,-7.15748 6.377952,-7.015748 z"
     id="path3020"
     style="fill:#ffffff;fill-opacity:1;fill-rule:evenodd;stroke:none" /></g></svg>