<?xml version="1.0" encoding="UTF-8" standalone="no"?>

<svg
   xmlns:dc="http://purl.org/dc/elements/1.1/"
   xmlns:cc="http://creativecommons.org/ns#"
   xmlns:rdf="http://www.w3.org/1999/02/22-rdf-syntax-ns#"
   xmlns:svg="http://www.w3.org/2000/svg"
   xmlns="http://www.w3.org/2000/svg"
   version="1.1"
   width="100"
   height="100"
   viewBox="0 0 100 100"
   id="Capa_1"
   xml:space="preserve"><metadata
   id="metadata13"><rdf:RDF><cc:Work
       rdf:about=""><dc:format>image/svg+xml</dc:format><dc:type
         rdf:resource="http://purl.org/dc/dcmitype/StillImage" /><dc:title></dc:title></cc:Work></rdf:RDF></metadata><defs
   id="defs11" />

<g
   transform="scale(0.5519699,0.5519699)"
   id="g3096"><path
     d="m 0,0 181.1693,0 0,181.1693 L 0,181.1693 0,0 z"
     id="path3098"
     style="fill:#33cc33;fill-opacity:1;fill-rule:evenodd;stroke:none" /><path
     d="m 33.980316,33.980316 113.208664,0 0,113.208664 -113.208664,0 0,-113.208664 z"
     id="path3100"
     style="fill:#33cc33;fill-opacity:1;fill-rule:evenodd;stroke:#ffffff;stroke-width:11.30315018px;stroke-linecap:butt;stroke-linejoin:miter;stroke-miterlimit:4;stroke-opacity:1;stroke-dasharray:none" /><path
     d="m 33.980316,33.980316 113.208664,0 0,113.208664 -113.208664,0 0,-113.208664 z"
     id="path3102"
     style="fill:#33cc33;fill-opacity:1;fill-rule:evenodd;stroke:#ffffff;stroke-width:0.03543307px;stroke-linecap:butt;stroke-linejoin:miter;stroke-miterlimit:4;stroke-opacity:1;stroke-dasharray:none" /><path
     d="M 39.614174,96.236223 62.255907,73.59449 96.236223,113.2441 118.87796,90.602365 l 22.64173,16.972445 0,33.98031 -101.905516,0 0,-45.318897 z"
     id="path3104"
     style="fill:#ffffff;fill-opacity:1;fill-rule:evenodd;stroke:none" /><path
     d="m 118.87796,45.318899 c 9.35433,0 16.97244,7.582677 16.97244,16.972441 0,9.354331 -7.61811,16.972442 -16.97244,16.972442 -9.35433,0 -16.97245,-7.618111 -16.97245,-16.972442 0,-9.389764 7.61812,-16.972441 16.97245,-16.972441 z"
     id="path3106"
     style="fill:#ffffff;fill-opacity:1;fill-rule:evenodd;stroke:none" /></g></svg>