<?xml version="1.0" encoding="UTF-8" standalone="no"?>

<svg
   xmlns:dc="http://purl.org/dc/elements/1.1/"
   xmlns:cc="http://creativecommons.org/ns#"
   xmlns:rdf="http://www.w3.org/1999/02/22-rdf-syntax-ns#"
   xmlns:svg="http://www.w3.org/2000/svg"
   xmlns="http://www.w3.org/2000/svg"
   version="1.1"
   width="100"
   height="100"
   viewBox="0 0 100 100"
   id="Capa_1"
   xml:space="preserve"><metadata
   id="metadata13"><rdf:RDF><cc:Work
       rdf:about=""><dc:format>image/svg+xml</dc:format><dc:type
         rdf:resource="http://purl.org/dc/dcmitype/StillImage" /><dc:title></dc:title></cc:Work></rdf:RDF></metadata><defs
   id="defs11" />

<g
   transform="scale(0.5519699,0.5519699)"
   id="g3079"><path
     d="m 0,0 181.1693,0 0,181.1693 L 0,181.1693 0,0 z"
     id="path3081"
     style="fill:#33cc33;fill-opacity:1;fill-rule:evenodd;stroke:none" /><path
     d="m 81.035435,106.61811 c 4.783465,0 9.212599,0.88583 13.039371,2.40945 l -18.496064,-73.984252 0.354331,0.318898 c -0.46063,-2.409449 -0.637795,-4.854331 -0.531496,-7.334646 -0.602362,13.322835 28.275593,22.641733 39.720473,25.901575 14.66929,4.14567 23.10236,14.88189 23.77559,34.618112 0,0.07087 -4.7126,14.137793 -4.21653,7.795275 C 135.6378,84.118113 125.04331,79.405514 115.19292,75.89764 107.68111,73.240159 100.13386,68.811025 93.649609,63.2126 l 11.870081,55.70079 c 0.63779,1.45276 0.99212,3.08268 0.99212,4.7126 0,9.38976 -11.374012,16.97244 -25.476375,16.97244 -14.031496,0 -25.476378,-7.58268 -25.476378,-16.97244 0,-9.38977 11.444882,-17.00788 25.476378,-17.00788 z"
     id="path3083"
     style="fill:#ffffff;fill-opacity:1;fill-rule:evenodd;stroke:none" /></g></svg>