<?xml version="1.0" encoding="UTF-8" standalone="no"?>

<svg
   xmlns:dc="http://purl.org/dc/elements/1.1/"
   xmlns:cc="http://creativecommons.org/ns#"
   xmlns:rdf="http://www.w3.org/1999/02/22-rdf-syntax-ns#"
   xmlns:svg="http://www.w3.org/2000/svg"
   xmlns="http://www.w3.org/2000/svg"
   xmlns:sodipodi="http://sodipodi.sourceforge.net/DTD/sodipodi-0.dtd"
   xmlns:inkscape="http://www.inkscape.org/namespaces/inkscape"
   version="1.1"
   width="100"
   height="100"
   viewBox="0 0 100 100"
   id="Capa_1"
   xml:space="preserve"
   inkscape:version="0.48.5 r10040"
   sodipodi:docname="icon.svg"><sodipodi:namedview
   pagecolor="#ffffff"
   bordercolor="#666666"
   borderopacity="1"
   objecttolerance="10"
   gridtolerance="10"
   guidetolerance="10"
   inkscape:pageopacity="0"
   inkscape:pageshadow="2"
   inkscape:window-width="667"
   inkscape:window-height="480"
   id="namedview8"
   showgrid="false"
   inkscape:zoom="2.36"
   inkscape:cx="50"
   inkscape:cy="50"
   inkscape:window-x="0"
   inkscape:window-y="0"
   inkscape:window-maximized="0"
   inkscape:current-layer="Capa_1" /><metadata
   id="metadata13"><rdf:RDF><cc:Work
       rdf:about=""><dc:format>image/svg+xml</dc:format><dc:type
         rdf:resource="http://purl.org/dc/dcmitype/StillImage" /><dc:title></dc:title></cc:Work></rdf:RDF></metadata><defs
   id="defs11" />

<g
   id="g3033"
   transform="scale(0.5519699,0.5519699)"><path
     id="path3035"
     d="m 0,0 181.1693,0 0,181.1693 L 0,181.1693 0,0 z"
     style="fill:#33cc33;fill-opacity:1;fill-rule:evenodd;stroke:none"
     inkscape:connector-curvature="0" /><path
     id="path3037"
     d="m 28.311024,22.641733 124.547246,0 0,135.885827 -124.547246,0 0,-135.885827 z"
     style="fill:#ffffff;fill-opacity:1;fill-rule:evenodd;stroke:none"
     inkscape:connector-curvature="0" /><path
     id="path3039"
     d="m 135.8504,22.641733 11.33858,0 0,11.338583 -11.33858,0 0,-11.338583 z m -73.594493,107.574807 56.622053,0 c 6.23622,0 11.33858,5.10236 11.33858,11.33858 l 0,5.63386 0,11.33858 -11.33858,0 -56.622053,0 -11.30315,0 0,-11.33858 0,-5.63386 c 0,-6.23622 5.102363,-11.33858 11.30315,-11.33858 z m 2.834646,-73.594491 50.952757,0 c 7.79528,0 14.17323,6.377953 14.17323,14.173229 l 0,39.614172 c 0,7.79528 -6.37795,14.1378 -14.17323,14.1378 l -50.952757,0 c -7.759843,0 -14.137796,-6.34252 -14.137796,-14.1378 l 0,-39.614172 c 0,-7.795276 6.377953,-14.173229 14.137796,-14.173229 z m -2.834646,-5.669292 56.622053,0 c 6.23622,0 11.33858,-5.066929 11.33858,-11.30315 l 0,-5.669291 0,-11.338583 -11.33858,0 -56.622053,0 -11.30315,0 0,11.338583 0,5.669291 c 0,6.236221 5.102363,11.30315 11.30315,11.30315 z m -28.275591,-28.311024 11.30315,0 0,11.338583 -11.30315,0 0,-11.338583 z m 0,118.913387 11.30315,0 0,11.26772 -11.30315,0 0,-11.26772 z m 0,-67.96063 11.30315,0 0,11.30315 -11.30315,0 0,-11.30315 z m 0,33.98032 11.30315,0 0,11.30315 -11.30315,0 0,-11.30315 z m 0,-67.925203 11.30315,0 0,11.30315 -11.30315,0 0,-11.30315 z m 0,84.897643 11.30315,0 0,11.33858 -11.30315,0 0,-11.33858 z m 0,-67.925201 11.30315,0 0,11.338583 -11.30315,0 0,-11.338583 z m 0,33.980316 11.30315,0 0,11.303145 -11.30315,0 0,-11.303145 z m 101.870084,50.952755 11.33858,0 0,11.26772 -11.33858,0 0,-11.26772 z m 0,-67.96063 11.33858,0 0,11.30315 -11.33858,0 0,-11.30315 z m 0,33.98032 11.33858,0 0,11.30315 -11.33858,0 0,-11.30315 z m 0,-67.925203 11.33858,0 0,11.30315 -11.33858,0 0,-11.30315 z m 0,84.897643 11.33858,0 0,11.33858 -11.33858,0 0,-11.33858 z m 0,-67.925201 11.33858,0 0,11.338583 -11.33858,0 0,-11.338583 z m 0,33.980316 11.33858,0 0,11.303145 -11.33858,0 0,-11.303145 z"
     style="fill:#33cc33;fill-opacity:1;fill-rule:evenodd;stroke:none"
     inkscape:connector-curvature="0" /></g></svg>